<?xml version="1.0" encoding="utf-8"?>
<!-- Generator: Adobe Illustrator 21.0.0, SVG Export Plug-In . SVG Version: 6.00 Build 0)  -->
<svg version="1.1" id="Layer_1" xmlns="http://www.w3.org/2000/svg" xmlns:xlink="http://www.w3.org/1999/xlink" x="0px" y="0px"
	 width="377.9px" height="108px" viewBox="0 0 377.9 108" style="enable-background:new 0 0 377.9 108;" xml:space="preserve">
<style type="text/css">
	.st0{fill:#40B4E5;}
	.st1{fill:#FFFFFF;}
</style>
<title>DivvyLogo_p</title>
<path class="st1" d="M377.3,23.2c-0.7-1-1.8-1.5-3-1.4H365c-1.3,0-2.3,1-3.3,2.2l-27.2,32.8l-27.1-32.8c-0.9-1.2-2-2.2-3.3-2.2h-9.4
	c-1.2-0.1-2.3,0.5-3,1.4c-0.7,1-0.7,2.3-0.1,3.3l35.5,43.3v20c0.1,1.9,1.6,3.4,3.5,3.4h7.6c1.9,0,3.4-1.5,3.5-3.4v-20l35.5-43.3
	C378,25.4,378,24.1,377.3,23.2"/>
<path class="st1" d="M54.6,78.7h-40V36.2h40c8.8,0,16,7.2,16,16v10.3C70.6,71.4,63.5,78.6,54.6,78.7 M54.6,21.7H3.3c-1.8,0-3.3,1.5-3.3,3.3v64.7
	c0,1.8,1.5,3.3,3.3,3.3h51.3c16.9,0,30.6-13.7,30.6-30.6V52.2C85.1,35.3,71.4,21.7,54.6,21.7"/>
<path class="st1" d="M167.4,36.2c1.9-0.1,3.3-1.6,3.3-3.5v-7.4c0-1.9-1.5-3.4-3.3-3.5h-64.2c-1.9,0.1-3.3,1.6-3.3,3.5v7.4c0,1.9,1.5,3.4,3.3,3.5
	H128v42.5h-24.8c-1.9,0.1-3.3,1.6-3.3,3.5v7.4c0,1.9,1.5,3.4,3.3,3.5h64.2c1.9-0.1,3.3-1.6,3.3-3.5v-7.4c0-1.9-1.5-3.4-3.3-3.5
	h-24.8V36.2L167.4,36.2z"/>
<path class="st0" d="M279.6,0c-1,0-2,0.5-2.6,1.2l-42.8,42.8L191.3,1.2c-0.7-0.8-1.6-1.2-2.6-1.2c-1.6,0-2.8,1.3-2.8,2.9
	c0,0.1,0,0.2,0,0.2v12.7c0,1.1,0.4,2.1,1.2,2.8L227,58.4c0.9,0.8,2,1.3,3.2,1.3h7.8c1.2,0,2.3-0.5,3.2-1.3l39.9-39.7
	c0.8-0.7,1.2-1.7,1.2-2.8V3.1c0.2-1.6-1-2.9-2.5-3.1C279.7,0,279.7,0,279.6,0"/>
<path class="st0" d="M279.6,48.3c-1,0-2,0.5-2.6,1.2l-42.8,42.8l-42.8-42.8c-0.7-0.8-1.6-1.2-2.6-1.2c-1.6,0-2.8,1.3-2.8,2.9
	c0,0.1,0,0.2,0,0.2v12.7c0,1.1,0.4,2.1,1.2,2.8l39.9,39.7c0.9,0.8,2,1.3,3.2,1.3h7.8c1.2,0,2.3-0.5,3.2-1.3l39.9-39.8
	c0.8-0.7,1.2-1.7,1.2-2.8V51.4c0.1-1.6-1-2.9-2.5-3.1C279.7,48.3,279.7,48.3,279.6,48.3"/>
<path class="st1" d="M354.7,80.8c3.4,0,6.1,2.8,6.1,6.1c0,3.4-2.8,6.1-6.1,6.1c-3.4,0-6.1-2.8-6.1-6.1v0C348.5,83.5,351.3,80.8,354.7,80.8z
	 M350.2,86.9c0,2.5,2,4.5,4.5,4.5c2.5,0,4.5-2,4.5-4.5c0-2.5-2-4.5-4.5-4.5C352.2,82.4,350.2,84.4,350.2,86.9z M356.2,87.9l1.1,2.1
	c0.1,0.2,0,0.3-0.2,0.3H356c-0.1,0-0.3-0.1-0.3-0.2l-1-2.1c0-0.1-0.1-0.1-0.2-0.1H354c-0.1,0-0.1,0-0.1,0.1c0,0,0,0,0,0v2.1
	c0,0.1-0.1,0.2-0.2,0.2c0,0,0,0,0,0h-1.2c-0.1,0-0.2-0.1-0.2-0.2v-6.4c0-0.1,0.1-0.2,0.2-0.2h2.6c1.2,0,2.2,1,2.2,2.2
	c0,0.8-0.4,1.5-1.1,1.9C356.1,87.7,356.1,87.8,356.2,87.9L356.2,87.9z M355,86.4c0.4,0,0.7-0.3,0.7-0.7c0,0,0,0,0,0
	c0-0.4-0.3-0.7-0.7-0.7h-1c-0.1,0-0.1,0-0.1,0.1c0,0,0,0,0,0v1.3c0,0.1,0,0.1,0.1,0.1c0,0,0,0,0,0L355,86.4z"/>
</svg>
